<svg xmlns="http://www.w3.org/2000/svg" width="760" height="420" viewBox="0 0 760 420"><rect width="760" height="420" fill="#fff"/><line x1="70.00" y1="368.00" x2="740.00" y2="368.00" stroke="#d8d8d8" stroke-width="1.0"/><text x="62.00" y="372.00" text-anchor="end" font-family="Helvetica,Arial,sans-serif" font-size="10" font-weight="normal" fill="#222">0</text><line x1="70.00" y1="278.23" x2="740.00" y2="278.23" stroke="#d8d8d8" stroke-width="1.0"/><text x="62.00" y="282.23" text-anchor="end" font-family="Helvetica,Arial,sans-serif" font-size="10" font-weight="normal" fill="#222">200</text><line x1="70.00" y1="188.46" x2="740.00" y2="188.46" stroke="#d8d8d8" stroke-width="1.0"/><text x="62.00" y="192.46" text-anchor="end" font-family="Helvetica,Arial,sans-serif" font-size="10" font-weight="normal" fill="#222">400</text><line x1="70.00" y1="98.69" x2="740.00" y2="98.69" stroke="#d8d8d8" stroke-width="1.0"/><text x="62.00" y="102.69" text-anchor="end" font-family="Helvetica,Arial,sans-serif" font-size="10" font-weight="normal" fill="#222">600</text><line x1="189.95" y1="34.00" x2="189.95" y2="368.00" stroke="#d8d8d8" stroke-width="1.0"/><text x="189.95" y="384.00" text-anchor="middle" font-family="Helvetica,Arial,sans-serif" font-size="10" font-weight="normal" fill="#222">0</text><line x1="329.58" y1="34.00" x2="329.58" y2="368.00" stroke="#d8d8d8" stroke-width="1.0"/><text x="329.58" y="384.00" text-anchor="middle" font-family="Helvetica,Arial,sans-serif" font-size="10" font-weight="normal" fill="#222">2</text><line x1="469.21" y1="34.00" x2="469.21" y2="368.00" stroke="#d8d8d8" stroke-width="1.0"/><text x="469.21" y="384.00" text-anchor="middle" font-family="Helvetica,Arial,sans-serif" font-size="10" font-weight="normal" fill="#222">4</text><line x1="608.84" y1="34.00" x2="608.84" y2="368.00" stroke="#d8d8d8" stroke-width="1.0"/><text x="608.84" y="384.00" text-anchor="middle" font-family="Helvetica,Arial,sans-serif" font-size="10" font-weight="normal" fill="#222">6</text><rect x="70" y="34" width="670" height="334" fill="none" stroke="#222" stroke-width="1"/><text x="380.00" y="20.00" text-anchor="middle" font-family="Helvetica,Arial,sans-serif" font-size="13" font-weight="bold" fill="#222">Distribution of the out-of-sample rank logit across 12,870 combinations</text><text x="380.00" y="406.00" text-anchor="middle" font-family="Helvetica,Arial,sans-serif" font-size="11" font-weight="normal" fill="#222">logit of the selected specification's out-of-sample rank</text><text x="16" y="201.00" text-anchor="middle" font-family="Helvetica,Arial,sans-serif" font-size="11" fill="#222" transform="rotate(-90 16 201.00)">count</text><rect x="70.00" y="366.65" width="10.57" height="1.35" fill="#f0c9c9" fill-opacity="1.0" stroke="none"/><rect x="81.17" y="363.96" width="10.57" height="4.04" fill="#f0c9c9" fill-opacity="1.0" stroke="none"/><rect x="92.33" y="359.92" width="10.57" height="8.08" fill="#f0c9c9" fill-opacity="1.0" stroke="none"/><rect x="103.50" y="350.94" width="10.57" height="17.06" fill="#f0c9c9" fill-opacity="1.0" stroke="none"/><rect x="114.67" y="330.30" width="10.57" height="37.70" fill="#f0c9c9" fill-opacity="1.0" stroke="none"/><rect x="125.83" y="311.00" width="10.57" height="57.00" fill="#f0c9c9" fill-opacity="1.0" stroke="none"/><rect x="137.00" y="275.99" width="10.57" height="92.01" fill="#f0c9c9" fill-opacity="1.0" stroke="none"/><rect x="148.17" y="229.75" width="10.57" height="138.25" fill="#f0c9c9" fill-opacity="1.0" stroke="none"/><rect x="159.33" y="193.85" width="10.57" height="174.15" fill="#f0c9c9" fill-opacity="1.0" stroke="none"/><rect x="170.50" y="159.73" width="10.57" height="208.27" fill="#f0c9c9" fill-opacity="1.0" stroke="none"/><rect x="181.67" y="135.94" width="10.57" height="232.06" fill="#2b6cb0" fill-opacity="0.75" stroke="none"/><rect x="192.83" y="142.68" width="10.57" height="225.32" fill="#2b6cb0" fill-opacity="0.75" stroke="none"/><rect x="204.00" y="104.52" width="10.57" height="263.48" fill="#2b6cb0" fill-opacity="0.75" stroke="none"/><rect x="215.17" y="99.14" width="10.57" height="268.86" fill="#2b6cb0" fill-opacity="0.75" stroke="none"/><rect x="226.33" y="67.27" width="10.57" height="300.73" fill="#2b6cb0" fill-opacity="0.75" stroke="none"/><rect x="237.50" y="86.12" width="10.57" height="281.88" fill="#2b6cb0" fill-opacity="0.75" stroke="none"/><rect x="248.67" y="58.74" width="10.57" height="309.26" fill="#2b6cb0" fill-opacity="0.75" stroke="none"/><rect x="259.83" y="99.59" width="10.57" height="268.41" fill="#2b6cb0" fill-opacity="0.75" stroke="none"/><rect x="271.00" y="95.10" width="10.57" height="272.90" fill="#2b6cb0" fill-opacity="0.75" stroke="none"/><rect x="282.17" y="87.47" width="10.57" height="280.53" fill="#2b6cb0" fill-opacity="0.75" stroke="none"/><rect x="293.33" y="115.30" width="10.57" height="252.70" fill="#2b6cb0" fill-opacity="0.75" stroke="none"/><rect x="304.50" y="129.66" width="10.57" height="238.34" fill="#2b6cb0" fill-opacity="0.75" stroke="none"/><rect x="315.67" y="146.72" width="10.57" height="221.28" fill="#2b6cb0" fill-opacity="0.75" stroke="none"/><rect x="326.83" y="170.95" width="10.57" height="197.05" fill="#2b6cb0" fill-opacity="0.75" stroke="none"/><rect x="338.00" y="181.28" width="10.57" height="186.72" fill="#2b6cb0" fill-opacity="0.75" stroke="none"/><rect x="349.17" y="216.29" width="10.57" height="151.71" fill="#2b6cb0" fill-opacity="0.75" stroke="none"/><rect x="360.33" y="229.30" width="10.57" height="138.70" fill="#2b6cb0" fill-opacity="0.75" stroke="none"/><rect x="371.50" y="240.08" width="10.57" height="127.92" fill="#2b6cb0" fill-opacity="0.75" stroke="none"/><rect x="382.67" y="258.03" width="10.57" height="109.97" fill="#2b6cb0" fill-opacity="0.75" stroke="none"/><rect x="393.83" y="272.84" width="10.57" height="95.16" fill="#2b6cb0" fill-opacity="0.75" stroke="none"/><rect x="405.00" y="278.68" width="10.57" height="89.32" fill="#2b6cb0" fill-opacity="0.75" stroke="none"/><rect x="416.17" y="291.70" width="10.57" height="76.30" fill="#2b6cb0" fill-opacity="0.75" stroke="none"/><rect x="427.33" y="292.14" width="10.57" height="75.86" fill="#2b6cb0" fill-opacity="0.75" stroke="none"/><rect x="438.50" y="311.44" width="10.57" height="56.56" fill="#2b6cb0" fill-opacity="0.75" stroke="none"/><rect x="449.67" y="312.34" width="10.57" height="55.66" fill="#2b6cb0" fill-opacity="0.75" stroke="none"/><rect x="460.83" y="319.97" width="10.57" height="48.03" fill="#2b6cb0" fill-opacity="0.75" stroke="none"/><rect x="472.00" y="329.40" width="10.57" height="38.60" fill="#2b6cb0" fill-opacity="0.75" stroke="none"/><rect x="483.17" y="341.97" width="10.57" height="26.03" fill="#2b6cb0" fill-opacity="0.75" stroke="none"/><rect x="494.33" y="342.42" width="10.57" height="25.58" fill="#2b6cb0" fill-opacity="0.75" stroke="none"/><rect x="505.50" y="346.01" width="10.57" height="21.99" fill="#2b6cb0" fill-opacity="0.75" stroke="none"/><rect x="516.67" y="350.05" width="10.57" height="17.95" fill="#2b6cb0" fill-opacity="0.75" stroke="none"/><rect x="527.83" y="349.15" width="10.57" height="18.85" fill="#2b6cb0" fill-opacity="0.75" stroke="none"/><rect x="539.00" y="352.29" width="10.57" height="15.71" fill="#2b6cb0" fill-opacity="0.75" stroke="none"/><rect x="550.17" y="353.19" width="10.57" height="14.81" fill="#2b6cb0" fill-opacity="0.75" stroke="none"/><rect x="561.33" y="360.82" width="10.57" height="7.18" fill="#2b6cb0" fill-opacity="0.75" stroke="none"/><rect x="572.50" y="359.92" width="10.57" height="8.08" fill="#2b6cb0" fill-opacity="0.75" stroke="none"/><rect x="583.67" y="363.96" width="10.57" height="4.04" fill="#2b6cb0" fill-opacity="0.75" stroke="none"/><rect x="594.83" y="365.31" width="10.57" height="2.69" fill="#2b6cb0" fill-opacity="0.75" stroke="none"/><rect x="606.00" y="363.96" width="10.57" height="4.04" fill="#2b6cb0" fill-opacity="0.75" stroke="none"/><rect x="617.17" y="367.10" width="10.57" height="0.90" fill="#2b6cb0" fill-opacity="0.75" stroke="none"/><rect x="628.33" y="365.76" width="10.57" height="2.24" fill="#2b6cb0" fill-opacity="0.75" stroke="none"/><rect x="639.50" y="367.10" width="10.57" height="0.90" fill="#2b6cb0" fill-opacity="0.75" stroke="none"/><rect x="650.67" y="365.76" width="10.57" height="2.24" fill="#2b6cb0" fill-opacity="0.75" stroke="none"/><rect x="661.83" y="367.55" width="10.57" height="0.45" fill="#2b6cb0" fill-opacity="0.75" stroke="none"/><rect x="673.00" y="367.10" width="10.57" height="0.90" fill="#2b6cb0" fill-opacity="0.75" stroke="none"/><rect x="684.17" y="367.55" width="10.57" height="0.45" fill="#2b6cb0" fill-opacity="0.75" stroke="none"/><rect x="695.33" y="368.00" width="10.57" height="0.00" fill="#2b6cb0" fill-opacity="0.75" stroke="none"/><rect x="706.50" y="368.00" width="10.57" height="0.00" fill="#2b6cb0" fill-opacity="0.75" stroke="none"/><rect x="717.67" y="368.00" width="10.57" height="0.00" fill="#2b6cb0" fill-opacity="0.75" stroke="none"/><rect x="728.83" y="367.55" width="10.57" height="0.45" fill="#2b6cb0" fill-opacity="0.75" stroke="none"/><line x1="189.95" y1="34.00" x2="189.95" y2="368.00" stroke="#b03030" stroke-width="1.6" stroke-dasharray="4,3"/><text x="195.95" y="48.00" text-anchor="start" font-family="Helvetica,Arial,sans-serif" font-size="10" font-weight="normal" fill="#b03030">logit = 0</text><text x="70.00" y="26.00" text-anchor="start" font-family="Helvetica,Arial,sans-serif" font-size="10" font-weight="normal" fill="#222">shaded region is the PBO, being 0.1578 of combinations below zero</text></svg>
