<svg xmlns="http://www.w3.org/2000/svg" width="760" height="420" viewBox="0 0 760 420"><rect width="760" height="420" fill="#fff"/><line x1="70.00" y1="327.53" x2="740.00" y2="327.53" stroke="#d8d8d8" stroke-width="1.0"/><text x="62.00" y="331.53" text-anchor="end" font-family="Helvetica,Arial,sans-serif" font-size="10" font-weight="normal" fill="#222">0.90</text><line x1="70.00" y1="234.92" x2="740.00" y2="234.92" stroke="#d8d8d8" stroke-width="1.0"/><text x="62.00" y="238.92" text-anchor="end" font-family="Helvetica,Arial,sans-serif" font-size="10" font-weight="normal" fill="#222">1.00</text><line x1="70.00" y1="142.31" x2="740.00" y2="142.31" stroke="#d8d8d8" stroke-width="1.0"/><text x="62.00" y="146.31" text-anchor="end" font-family="Helvetica,Arial,sans-serif" font-size="10" font-weight="normal" fill="#222">1.10</text><line x1="70.00" y1="49.69" x2="740.00" y2="49.69" stroke="#d8d8d8" stroke-width="1.0"/><text x="62.00" y="53.69" text-anchor="end" font-family="Helvetica,Arial,sans-serif" font-size="10" font-weight="normal" fill="#222">1.20</text><line x1="70.00" y1="34.00" x2="70.00" y2="368.00" stroke="#d8d8d8" stroke-width="1.0"/><text x="70.00" y="384.00" text-anchor="middle" font-family="Helvetica,Arial,sans-serif" font-size="10" font-weight="normal" fill="#222">0</text><line x1="204.00" y1="34.00" x2="204.00" y2="368.00" stroke="#d8d8d8" stroke-width="1.0"/><text x="204.00" y="384.00" text-anchor="middle" font-family="Helvetica,Arial,sans-serif" font-size="10" font-weight="normal" fill="#222">10</text><line x1="338.00" y1="34.00" x2="338.00" y2="368.00" stroke="#d8d8d8" stroke-width="1.0"/><text x="338.00" y="384.00" text-anchor="middle" font-family="Helvetica,Arial,sans-serif" font-size="10" font-weight="normal" fill="#222">20</text><line x1="472.00" y1="34.00" x2="472.00" y2="368.00" stroke="#d8d8d8" stroke-width="1.0"/><text x="472.00" y="384.00" text-anchor="middle" font-family="Helvetica,Arial,sans-serif" font-size="10" font-weight="normal" fill="#222">30</text><line x1="606.00" y1="34.00" x2="606.00" y2="368.00" stroke="#d8d8d8" stroke-width="1.0"/><text x="606.00" y="384.00" text-anchor="middle" font-family="Helvetica,Arial,sans-serif" font-size="10" font-weight="normal" fill="#222">40</text><line x1="740.00" y1="34.00" x2="740.00" y2="368.00" stroke="#d8d8d8" stroke-width="1.0"/><text x="740.00" y="384.00" text-anchor="middle" font-family="Helvetica,Arial,sans-serif" font-size="10" font-weight="normal" fill="#222">50</text><rect x="70" y="34" width="670" height="334" fill="none" stroke="#222" stroke-width="1"/><text x="380.00" y="20.00" text-anchor="middle" font-family="Helvetica,Arial,sans-serif" font-size="13" font-weight="bold" fill="#222">Naive Sharpe against uniform round-turn cost, with the benchmark crossings</text><text x="380.00" y="404.00" text-anchor="middle" font-family="Helvetica,Arial,sans-serif" font-size="11" font-weight="normal" fill="#222">uniform round-turn cost, basis points</text><text x="16" y="201.00" text-anchor="middle" font-family="Helvetica,Arial,sans-serif" font-size="11" fill="#222" transform="rotate(-90 16 201.00)">naive Sharpe, annualised</text><polyline points="70.00,38.63 137.00,63.68 204.00,89.89 338.00,143.75 539.00,240.75 740.00,363.37" fill="none" stroke="#2b6cb0" stroke-width="1.5"/><circle cx="70.00" cy="38.63" r="2.2" fill="#2b6cb0" stroke="#fff" stroke-width="0.6"/><circle cx="137.00" cy="63.68" r="2.2" fill="#2b6cb0" stroke="#fff" stroke-width="0.6"/><circle cx="204.00" cy="89.89" r="2.2" fill="#2b6cb0" stroke="#fff" stroke-width="0.6"/><circle cx="338.00" cy="143.75" r="2.2" fill="#2b6cb0" stroke="#fff" stroke-width="0.6"/><circle cx="539.00" cy="240.75" r="2.2" fill="#2b6cb0" stroke="#fff" stroke-width="0.6"/><circle cx="740.00" cy="363.37" r="2.2" fill="#2b6cb0" stroke="#fff" stroke-width="0.6"/><polyline points="70.00,90.26 137.00,90.36 204.00,90.47 338.00,90.68 539.00,90.99 740.00,91.31" fill="none" stroke="#b03030" stroke-width="1.5"/><circle cx="70.00" cy="90.26" r="2.2" fill="#b03030" stroke="#fff" stroke-width="0.6"/><circle cx="137.00" cy="90.36" r="2.2" fill="#b03030" stroke="#fff" stroke-width="0.6"/><circle cx="204.00" cy="90.47" r="2.2" fill="#b03030" stroke="#fff" stroke-width="0.6"/><circle cx="338.00" cy="90.68" r="2.2" fill="#b03030" stroke="#fff" stroke-width="0.6"/><circle cx="539.00" cy="90.99" r="2.2" fill="#b03030" stroke="#fff" stroke-width="0.6"/><circle cx="740.00" cy="91.31" r="2.2" fill="#b03030" stroke="#fff" stroke-width="0.6"/><polyline points="70.00,117.32 137.00,117.34 204.00,117.36 338.00,117.40 539.00,117.46 740.00,117.52" fill="none" stroke="#2f7d4f" stroke-width="1.5"/><circle cx="70.00" cy="117.32" r="2.2" fill="#2f7d4f" stroke="#fff" stroke-width="0.6"/><circle cx="137.00" cy="117.34" r="2.2" fill="#2f7d4f" stroke="#fff" stroke-width="0.6"/><circle cx="204.00" cy="117.36" r="2.2" fill="#2f7d4f" stroke="#fff" stroke-width="0.6"/><circle cx="338.00" cy="117.40" r="2.2" fill="#2f7d4f" stroke="#fff" stroke-width="0.6"/><circle cx="539.00" cy="117.46" r="2.2" fill="#2f7d4f" stroke="#fff" stroke-width="0.6"/><circle cx="740.00" cy="117.52" r="2.2" fill="#2f7d4f" stroke="#fff" stroke-width="0.6"/><polyline points="70.00,117.63 137.00,118.81 204.00,119.97 338.00,122.31 539.00,125.81 740.00,129.30" fill="none" stroke="#7a5195" stroke-width="1.5"/><circle cx="70.00" cy="117.63" r="2.2" fill="#7a5195" stroke="#fff" stroke-width="0.6"/><circle cx="137.00" cy="118.81" r="2.2" fill="#7a5195" stroke="#fff" stroke-width="0.6"/><circle cx="204.00" cy="119.97" r="2.2" fill="#7a5195" stroke="#fff" stroke-width="0.6"/><circle cx="338.00" cy="122.31" r="2.2" fill="#7a5195" stroke="#fff" stroke-width="0.6"/><circle cx="539.00" cy="125.81" r="2.2" fill="#7a5195" stroke="#fff" stroke-width="0.6"/><circle cx="740.00" cy="129.30" r="2.2" fill="#7a5195" stroke="#fff" stroke-width="0.6"/><polyline points="70.00,157.86 137.00,160.02 204.00,162.18 338.00,166.49 539.00,172.96 740.00,179.43" fill="none" stroke="#bf8b2e" stroke-width="1.5"/><circle cx="70.00" cy="157.86" r="2.2" fill="#bf8b2e" stroke="#fff" stroke-width="0.6"/><circle cx="137.00" cy="160.02" r="2.2" fill="#bf8b2e" stroke="#fff" stroke-width="0.6"/><circle cx="204.00" cy="162.18" r="2.2" fill="#bf8b2e" stroke="#fff" stroke-width="0.6"/><circle cx="338.00" cy="166.49" r="2.2" fill="#bf8b2e" stroke="#fff" stroke-width="0.6"/><circle cx="539.00" cy="172.96" r="2.2" fill="#bf8b2e" stroke="#fff" stroke-width="0.6"/><circle cx="740.00" cy="179.43" r="2.2" fill="#bf8b2e" stroke="#fff" stroke-width="0.6"/><line x1="205.13" y1="34.00" x2="205.13" y2="368.00" stroke="#b03030" stroke-width="1.0" stroke-dasharray="3,3"/><rect x="173.43" y="339.00" width="63.40" height="12.00" fill="#fff" fill-opacity="0.85" stroke="none"/><text x="205.13" y="347.00" text-anchor="middle" font-family="Helvetica,Arial,sans-serif" font-size="9" font-weight="normal" fill="#b03030">QQQ 10.08 bp</text><line x1="272.35" y1="34.00" x2="272.35" y2="368.00" stroke="#2f7d4f" stroke-width="1.0" stroke-dasharray="3,3"/><rect x="238.18" y="326.00" width="68.35" height="12.00" fill="#fff" fill-opacity="0.85" stroke="none"/><text x="272.35" y="334.00" text-anchor="middle" font-family="Helvetica,Arial,sans-serif" font-size="9" font-weight="normal" fill="#2f7d4f">TQQQ 15.10 bp</text><line x1="278.84" y1="34.00" x2="278.84" y2="368.00" stroke="#7a5195" stroke-width="1.0" stroke-dasharray="3,3"/><rect x="214.96" y="313.00" width="127.75" height="12.00" fill="#fff" fill-opacity="0.85" stroke="none"/><text x="278.84" y="321.00" text-anchor="middle" font-family="Helvetica,Arial,sans-serif" font-size="9" font-weight="normal" fill="#7a5195">matched exposure 15.58 bp</text><line x1="376.18" y1="34.00" x2="376.18" y2="368.00" stroke="#bf8b2e" stroke-width="1.0" stroke-dasharray="3,3"/><rect x="322.21" y="300.00" width="107.95" height="12.00" fill="#fff" fill-opacity="0.85" stroke="none"/><text x="376.18" y="308.00" text-anchor="middle" font-family="Helvetica,Arial,sans-serif" font-size="9" font-weight="normal" fill="#bf8b2e">vol targeted 22.85 bp</text><rect x="78.00" y="236.00" width="122.00" height="83.00" fill="#fff" fill-opacity="0.88" stroke="#222"/><rect x="84.00" y="243.00" width="16" height="3" fill="#2b6cb0"/><text x="106.00" y="249.00" text-anchor="start" font-family="Helvetica,Arial,sans-serif" font-size="10" font-weight="normal" fill="#222">designated cell</text><rect x="84.00" y="258.00" width="16" height="3" fill="#b03030"/><text x="106.00" y="264.00" text-anchor="start" font-family="Helvetica,Arial,sans-serif" font-size="10" font-weight="normal" fill="#222">QQQ</text><rect x="84.00" y="273.00" width="16" height="3" fill="#2f7d4f"/><text x="106.00" y="279.00" text-anchor="start" font-family="Helvetica,Arial,sans-serif" font-size="10" font-weight="normal" fill="#222">TQQQ</text><rect x="84.00" y="288.00" width="16" height="3" fill="#7a5195"/><text x="106.00" y="294.00" text-anchor="start" font-family="Helvetica,Arial,sans-serif" font-size="10" font-weight="normal" fill="#222">matched exposure</text><rect x="84.00" y="303.00" width="16" height="3" fill="#bf8b2e"/><text x="106.00" y="309.00" text-anchor="start" font-family="Helvetica,Arial,sans-serif" font-size="10" font-weight="normal" fill="#222">vol targeted</text><text x="736.00" y="50.00" text-anchor="end" font-family="Helvetica,Arial,sans-serif" font-size="9" font-weight="normal" fill="#555">10 of 22 crossings across the eleven lines and both Sharpe conventions fall inside the swept range</text><text x="736.00" y="62.00" text-anchor="end" font-family="Helvetica,Arial,sans-serif" font-size="9" font-weight="normal" fill="#555">12 would be extrapolations and are not marked</text><text x="70.00" y="416.00" text-anchor="start" font-family="Helvetica,Arial,sans-serif" font-size="8" font-weight="normal" fill="#555">source outputs/session-20/rebuilt/cost-sweep-designated.csv and outputs/session-21/reads.csv</text><text x="740.00" y="416.00" text-anchor="end" font-family="Helvetica,Arial,sans-serif" font-size="8" font-weight="normal" fill="#555">sample period 2011-10-04 to 2021-07-30, 2472 sessions</text></svg>
