<svg xmlns="http://www.w3.org/2000/svg" width="760" height="420" viewBox="0 0 760 420"><rect width="760" height="420" fill="#fff"/><line x1="197.53" y1="34.00" x2="197.53" y2="368.00" stroke="#d8d8d8" stroke-width="1.0"/><text x="197.53" y="384.00" text-anchor="middle" font-family="Helvetica,Arial,sans-serif" font-size="10" font-weight="normal" fill="#222">0.5</text><line x1="396.13" y1="34.00" x2="396.13" y2="368.00" stroke="#d8d8d8" stroke-width="1.0"/><text x="396.13" y="384.00" text-anchor="middle" font-family="Helvetica,Arial,sans-serif" font-size="10" font-weight="normal" fill="#222">1.0</text><line x1="594.73" y1="34.00" x2="594.73" y2="368.00" stroke="#d8d8d8" stroke-width="1.0"/><text x="594.73" y="384.00" text-anchor="middle" font-family="Helvetica,Arial,sans-serif" font-size="10" font-weight="normal" fill="#222">1.5</text><rect x="70" y="34" width="670" height="334" fill="none" stroke="#222" stroke-width="1"/><text x="380.00" y="20.00" text-anchor="middle" font-family="Helvetica,Arial,sans-serif" font-size="13" font-weight="bold" fill="#222">Lo-corrected Sharpe against each ladder row's own no-autocorrelation null</text><text x="380.00" y="404.00" text-anchor="middle" font-family="Helvetica,Arial,sans-serif" font-size="11" font-weight="normal" fill="#222">Lo-corrected Sharpe, annualised</text><text x="16" y="201.00" text-anchor="middle" font-family="Helvetica,Arial,sans-serif" font-size="11" fill="#222" transform="rotate(-90 16 201.00)">ladder row, ordered by the observed value</text><line x1="326.97" y1="296.27" x2="583.72" y2="296.27" stroke="#9aa5b1" stroke-width="1.6"/><line x1="326.97" y1="292.27" x2="326.97" y2="300.27" stroke="#9aa5b1" stroke-width="1.6"/><line x1="583.72" y1="292.27" x2="583.72" y2="300.27" stroke="#9aa5b1" stroke-width="1.6"/><circle cx="444.36" cy="296.27" r="2.0" fill="#9aa5b1" stroke="#fff" stroke-width="0.6"/><circle cx="205.05" cy="296.27" r="4.0" fill="#2b6cb0" stroke="#fff" stroke-width="0.6"/><rect x="73.00" y="292.27" width="107.95" height="12.00" fill="#fff" fill-opacity="0.85" stroke="none"/><text x="75.00" y="300.27" text-anchor="start" font-family="Helvetica,Arial,sans-serif" font-size="9" font-weight="normal" fill="#222">sleeve_T10_standalone</text><line x1="330.64" y1="273.85" x2="587.48" y2="273.85" stroke="#9aa5b1" stroke-width="1.6"/><line x1="330.64" y1="269.85" x2="330.64" y2="277.85" stroke="#9aa5b1" stroke-width="1.6"/><line x1="587.48" y1="269.85" x2="587.48" y2="277.85" stroke="#9aa5b1" stroke-width="1.6"/><circle cx="442.61" cy="273.85" r="2.0" fill="#9aa5b1" stroke="#fff" stroke-width="0.6"/><circle cx="233.45" cy="273.85" r="4.0" fill="#2b6cb0" stroke="#fff" stroke-width="0.6"/><rect x="73.00" y="269.85" width="107.95" height="12.00" fill="#fff" fill-opacity="0.85" stroke="none"/><text x="75.00" y="277.85" text-anchor="start" font-family="Helvetica,Arial,sans-serif" font-size="9" font-weight="normal" fill="#222">equal_weight_universe</text><line x1="322.69" y1="251.44" x2="581.20" y2="251.44" stroke="#9aa5b1" stroke-width="1.6"/><line x1="322.69" y1="247.44" x2="322.69" y2="255.44" stroke="#9aa5b1" stroke-width="1.6"/><line x1="581.20" y1="247.44" x2="581.20" y2="255.44" stroke="#9aa5b1" stroke-width="1.6"/><circle cx="442.75" cy="251.44" r="2.0" fill="#9aa5b1" stroke="#fff" stroke-width="0.6"/><circle cx="385.77" cy="251.44" r="4.0" fill="#2b6cb0" stroke="#fff" stroke-width="0.6"/><rect x="73.00" y="247.44" width="107.95" height="12.00" fill="#fff" fill-opacity="0.85" stroke="none"/><text x="75.00" y="255.44" text-anchor="start" font-family="Helvetica,Arial,sans-serif" font-size="9" font-weight="normal" fill="#222">sleeve_T11_standalone</text><line x1="324.03" y1="229.02" x2="586.27" y2="229.02" stroke="#9aa5b1" stroke-width="1.6"/><line x1="324.03" y1="225.02" x2="324.03" y2="233.02" stroke="#9aa5b1" stroke-width="1.6"/><line x1="586.27" y1="225.02" x2="586.27" y2="233.02" stroke="#9aa5b1" stroke-width="1.6"/><circle cx="441.87" cy="229.02" r="2.0" fill="#9aa5b1" stroke="#fff" stroke-width="0.6"/><circle cx="426.15" cy="229.02" r="4.0" fill="#2b6cb0" stroke="#fff" stroke-width="0.6"/><rect x="73.00" y="225.02" width="112.90" height="12.00" fill="#fff" fill-opacity="0.85" stroke="none"/><text x="75.00" y="233.02" text-anchor="start" font-family="Helvetica,Arial,sans-serif" font-size="9" font-weight="normal" fill="#222">naive_fast_1d_momentum</text><line x1="322.43" y1="206.60" x2="604.61" y2="206.60" stroke="#9aa5b1" stroke-width="1.6"/><line x1="322.43" y1="202.60" x2="322.43" y2="210.60" stroke="#9aa5b1" stroke-width="1.6"/><line x1="604.61" y1="202.60" x2="604.61" y2="210.60" stroke="#9aa5b1" stroke-width="1.6"/><circle cx="447.30" cy="206.60" r="2.0" fill="#9aa5b1" stroke="#fff" stroke-width="0.6"/><circle cx="473.93" cy="206.60" r="4.0" fill="#2b6cb0" stroke="#fff" stroke-width="0.6"/><rect x="73.00" y="202.60" width="103.00" height="12.00" fill="#fff" fill-opacity="0.85" stroke="none"/><text x="75.00" y="210.60" text-anchor="start" font-family="Helvetica,Arial,sans-serif" font-size="9" font-weight="normal" fill="#222">sleeve_S3_standalone</text><line x1="323.20" y1="184.19" x2="587.53" y2="184.19" stroke="#9aa5b1" stroke-width="1.6"/><line x1="323.20" y1="180.19" x2="323.20" y2="188.19" stroke="#9aa5b1" stroke-width="1.6"/><line x1="587.53" y1="180.19" x2="587.53" y2="188.19" stroke="#9aa5b1" stroke-width="1.6"/><circle cx="444.27" cy="184.19" r="2.0" fill="#9aa5b1" stroke="#fff" stroke-width="0.6"/><circle cx="526.05" cy="184.19" r="4.0" fill="#2b6cb0" stroke="#fff" stroke-width="0.6"/><rect x="73.00" y="180.19" width="103.00" height="12.00" fill="#fff" fill-opacity="0.85" stroke="none"/><text x="75.00" y="188.19" text-anchor="start" font-family="Helvetica,Arial,sans-serif" font-size="9" font-weight="normal" fill="#222">sleeve_S2_standalone</text><line x1="320.90" y1="161.77" x2="596.52" y2="161.77" stroke="#9aa5b1" stroke-width="1.6"/><line x1="320.90" y1="157.77" x2="320.90" y2="165.77" stroke="#9aa5b1" stroke-width="1.6"/><line x1="596.52" y1="157.77" x2="596.52" y2="165.77" stroke="#9aa5b1" stroke-width="1.6"/><circle cx="445.49" cy="161.77" r="2.0" fill="#9aa5b1" stroke="#fff" stroke-width="0.6"/><circle cx="547.74" cy="161.77" r="4.0" fill="#2b6cb0" stroke="#fff" stroke-width="0.6"/><rect x="73.00" y="157.77" width="147.55" height="12.00" fill="#fff" fill-opacity="0.85" stroke="none"/><text x="75.00" y="165.77" text-anchor="start" font-family="Helvetica,Arial,sans-serif" font-size="9" font-weight="bold" fill="#222">STRATEGY, the designated cell</text><line x1="328.87" y1="139.36" x2="601.07" y2="139.36" stroke="#9aa5b1" stroke-width="1.6"/><line x1="328.87" y1="135.36" x2="328.87" y2="143.36" stroke="#9aa5b1" stroke-width="1.6"/><line x1="601.07" y1="135.36" x2="601.07" y2="143.36" stroke="#9aa5b1" stroke-width="1.6"/><circle cx="447.07" cy="139.36" r="2.0" fill="#9aa5b1" stroke="#fff" stroke-width="0.6"/><circle cx="567.10" cy="139.36" r="4.0" fill="#2b6cb0" stroke="#fff" stroke-width="0.6"/><rect x="73.00" y="135.36" width="122.80" height="12.00" fill="#fff" fill-opacity="0.85" stroke="none"/><text x="75.00" y="143.36" text-anchor="start" font-family="Helvetica,Arial,sans-serif" font-size="9" font-weight="normal" fill="#222">vol_targeted_QQQ_matched</text><line x1="328.62" y1="116.94" x2="600.83" y2="116.94" stroke="#9aa5b1" stroke-width="1.6"/><line x1="328.62" y1="112.94" x2="328.62" y2="120.94" stroke="#9aa5b1" stroke-width="1.6"/><line x1="600.83" y1="112.94" x2="600.83" y2="120.94" stroke="#9aa5b1" stroke-width="1.6"/><circle cx="445.62" cy="116.94" r="2.0" fill="#9aa5b1" stroke="#fff" stroke-width="0.6"/><circle cx="582.64" cy="116.94" r="4.0" fill="#2b6cb0" stroke="#fff" stroke-width="0.6"/><rect x="73.00" y="112.94" width="73.30" height="12.00" fill="#fff" fill-opacity="0.85" stroke="none"/><text x="75.00" y="120.94" text-anchor="start" font-family="Helvetica,Arial,sans-serif" font-size="9" font-weight="normal" fill="#222">long_legs_only</text><line x1="326.00" y1="94.52" x2="588.11" y2="94.52" stroke="#9aa5b1" stroke-width="1.6"/><line x1="326.00" y1="90.52" x2="326.00" y2="98.52" stroke="#9aa5b1" stroke-width="1.6"/><line x1="588.11" y1="90.52" x2="588.11" y2="98.52" stroke="#9aa5b1" stroke-width="1.6"/><circle cx="446.43" cy="94.52" r="2.0" fill="#9aa5b1" stroke="#fff" stroke-width="0.6"/><rect x="711.39" y="91.32" width="6.40" height="6.40" fill="#b03030"/><rect x="73.00" y="90.52" width="167.35" height="12.00" fill="#fff" fill-opacity="0.85" stroke="none"/><text x="75.00" y="98.52" text-anchor="start" font-family="Helvetica,Arial,sans-serif" font-size="9" font-weight="normal" fill="#222">matched_exposure_levered_QQQ_1.70</text><line x1="324.72" y1="72.11" x2="586.25" y2="72.11" stroke="#9aa5b1" stroke-width="1.6"/><line x1="324.72" y1="68.11" x2="324.72" y2="76.11" stroke="#9aa5b1" stroke-width="1.6"/><line x1="586.25" y1="68.11" x2="586.25" y2="76.11" stroke="#9aa5b1" stroke-width="1.6"/><circle cx="446.63" cy="72.11" r="2.0" fill="#9aa5b1" stroke="#fff" stroke-width="0.6"/><rect x="712.01" y="68.91" width="6.40" height="6.40" fill="#b03030"/><rect x="73.00" y="68.11" width="63.40" height="12.00" fill="#fff" fill-opacity="0.85" stroke="none"/><text x="75.00" y="76.11" text-anchor="start" font-family="Helvetica,Arial,sans-serif" font-size="9" font-weight="normal" fill="#222">buy_hold_QQQ</text><line x1="325.97" y1="49.69" x2="588.17" y2="49.69" stroke="#9aa5b1" stroke-width="1.6"/><line x1="325.97" y1="45.69" x2="325.97" y2="53.69" stroke="#9aa5b1" stroke-width="1.6"/><line x1="588.17" y1="45.69" x2="588.17" y2="53.69" stroke="#9aa5b1" stroke-width="1.6"/><circle cx="446.43" cy="49.69" r="2.0" fill="#9aa5b1" stroke="#fff" stroke-width="0.6"/><rect x="712.97" y="46.49" width="6.40" height="6.40" fill="#b03030"/><rect x="73.00" y="45.69" width="68.35" height="12.00" fill="#fff" fill-opacity="0.85" stroke="none"/><text x="75.00" y="53.69" text-anchor="start" font-family="Helvetica,Arial,sans-serif" font-size="9" font-weight="normal" fill="#222">buy_hold_TQQQ</text><rect x="78.00" y="304.00" width="380.50" height="53.00" fill="#fff" fill-opacity="0.88" stroke="#222"/><rect x="84.00" y="311.00" width="16" height="3" fill="#2b6cb0"/><text x="106.00" y="317.00" text-anchor="start" font-family="Helvetica,Arial,sans-serif" font-size="10" font-weight="normal" fill="#222">observed value inside its own null</text><rect x="84.00" y="326.00" width="16" height="3" fill="#b03030"/><text x="106.00" y="332.00" text-anchor="start" font-family="Helvetica,Arial,sans-serif" font-size="10" font-weight="normal" fill="#222">observed value outside its own null</text><rect x="84.00" y="341.00" width="16" height="3" fill="#9aa5b1"/><text x="106.00" y="347.00" text-anchor="start" font-family="Helvetica,Arial,sans-serif" font-size="10" font-weight="normal" fill="#222">bar spans the null 5th to 95th percentile, dot is the null mean</text><text x="70.00" y="416.00" text-anchor="start" font-family="Helvetica,Arial,sans-serif" font-size="8" font-weight="normal" fill="#555">source outputs/session-20/lo-q-sweep.csv</text><text x="740.00" y="416.00" text-anchor="end" font-family="Helvetica,Arial,sans-serif" font-size="8" font-weight="normal" fill="#555">sample period 2011-10-04 to 2021-07-30, 2472 sessions</text></svg>
