<svg xmlns="http://www.w3.org/2000/svg" width="760" height="420" viewBox="0 0 760 420"><rect width="760" height="420" fill="#fff"/><line x1="70.00" y1="334.25" x2="740.00" y2="334.25" stroke="#d8d8d8" stroke-width="1.0"/><text x="62.00" y="338.25" text-anchor="end" font-family="Helvetica,Arial,sans-serif" font-size="10" font-weight="normal" fill="#222">-4.0</text><line x1="70.00" y1="254.59" x2="740.00" y2="254.59" stroke="#d8d8d8" stroke-width="1.0"/><text x="62.00" y="258.59" text-anchor="end" font-family="Helvetica,Arial,sans-serif" font-size="10" font-weight="normal" fill="#222">-2.0</text><line x1="70.00" y1="174.93" x2="740.00" y2="174.93" stroke="#d8d8d8" stroke-width="1.0"/><text x="62.00" y="178.93" text-anchor="end" font-family="Helvetica,Arial,sans-serif" font-size="10" font-weight="normal" fill="#222">0.0</text><line x1="70.00" y1="95.28" x2="740.00" y2="95.28" stroke="#d8d8d8" stroke-width="1.0"/><text x="62.00" y="99.28" text-anchor="end" font-family="Helvetica,Arial,sans-serif" font-size="10" font-weight="normal" fill="#222">2.0</text><line x1="129.59" y1="34.00" x2="129.59" y2="368.00" stroke="#d8d8d8" stroke-width="1.0"/><text x="129.59" y="384.00" text-anchor="middle" font-family="Helvetica,Arial,sans-serif" font-size="10" font-weight="normal" fill="#222">60</text><line x1="308.99" y1="34.00" x2="308.99" y2="368.00" stroke="#d8d8d8" stroke-width="1.0"/><text x="308.99" y="384.00" text-anchor="middle" font-family="Helvetica,Arial,sans-serif" font-size="10" font-weight="normal" fill="#222">120</text><line x1="501.01" y1="34.00" x2="501.01" y2="368.00" stroke="#d8d8d8" stroke-width="1.0"/><text x="501.01" y="384.00" text-anchor="middle" font-family="Helvetica,Arial,sans-serif" font-size="10" font-weight="normal" fill="#222">252</text><line x1="680.41" y1="34.00" x2="680.41" y2="368.00" stroke="#d8d8d8" stroke-width="1.0"/><text x="680.41" y="384.00" text-anchor="middle" font-family="Helvetica,Arial,sans-serif" font-size="10" font-weight="normal" fill="#222">504</text><rect x="70" y="34" width="670" height="334" fill="none" stroke="#222" stroke-width="1"/><text x="380.00" y="20.00" text-anchor="middle" font-family="Helvetica,Arial,sans-serif" font-size="13" font-weight="bold" fill="#222">Rolling beta against buy-and-hold QQQ at four estimation windows</text><text x="380.00" y="404.00" text-anchor="middle" font-family="Helvetica,Arial,sans-serif" font-size="11" font-weight="normal" fill="#222">estimation window, sessions</text><text x="16" y="201.00" text-anchor="middle" font-family="Helvetica,Arial,sans-serif" font-size="11" fill="#222" transform="rotate(-90 16 201.00)">rolling beta</text><polygon points="129.59,63.87 308.99,89.67 501.01,95.85 680.41,119.93 680.41,151.23 501.01,196.17 308.99,273.61 129.59,354.06" fill="#2b6cb0" fill-opacity="0.16" stroke="none"/><polyline points="129.59,354.06 308.99,273.61 501.01,196.17 680.41,151.23" fill="none" stroke="#2b6cb0" stroke-width="1.0" stroke-dasharray="4,3"/><polyline points="129.59,63.87 308.99,89.67 501.01,95.85 680.41,119.93" fill="none" stroke="#2b6cb0" stroke-width="1.0" stroke-dasharray="4,3"/><polyline points="129.59,140.51 308.99,134.39 501.01,133.56 680.41,132.37" fill="none" stroke="#2b6cb0" stroke-width="1.8"/><circle cx="129.59" cy="140.51" r="3.4" fill="#2b6cb0" stroke="#fff" stroke-width="0.6"/><rect x="100.37" y="122.51" width="58.45" height="12.00" fill="#fff" fill-opacity="0.85" stroke="none"/><text x="129.59" y="130.51" text-anchor="middle" font-family="Helvetica,Arial,sans-serif" font-size="9" font-weight="normal" fill="#b03030">sd 1.164612</text><circle cx="308.99" cy="134.39" r="3.4" fill="#2b6cb0" stroke="#fff" stroke-width="0.6"/><rect x="279.76" y="116.39" width="58.45" height="12.00" fill="#fff" fill-opacity="0.85" stroke="none"/><text x="308.99" y="124.39" text-anchor="middle" font-family="Helvetica,Arial,sans-serif" font-size="9" font-weight="normal" fill="#b03030">sd 0.699299</text><circle cx="501.01" cy="133.56" r="3.4" fill="#2b6cb0" stroke="#fff" stroke-width="0.6"/><rect x="471.79" y="115.56" width="58.45" height="12.00" fill="#fff" fill-opacity="0.85" stroke="none"/><text x="501.01" y="123.56" text-anchor="middle" font-family="Helvetica,Arial,sans-serif" font-size="9" font-weight="normal" fill="#b03030">sd 0.410476</text><circle cx="680.41" cy="132.37" r="3.4" fill="#2b6cb0" stroke="#fff" stroke-width="0.6"/><rect x="623.96" y="114.37" width="58.45" height="12.00" fill="#fff" fill-opacity="0.85" stroke="none"/><text x="680.41" y="122.37" text-anchor="end" font-family="Helvetica,Arial,sans-serif" font-size="9" font-weight="normal" fill="#b03030">sd 0.209221</text><rect x="78.00" y="38.00" width="342.00" height="38.00" fill="#fff" fill-opacity="0.88" stroke="#222"/><rect x="84.00" y="45.00" width="16" height="3" fill="#2b6cb0"/><text x="106.00" y="51.00" text-anchor="start" font-family="Helvetica,Arial,sans-serif" font-size="10" font-weight="normal" fill="#222">mean rolling beta</text><rect x="84.00" y="60.00" width="16" height="3" fill="#2b6cb0"/><text x="106.00" y="66.00" text-anchor="start" font-family="Helvetica,Arial,sans-serif" font-size="10" font-weight="normal" fill="#222">dashed lines and shading span the minimum to the maximum</text><text x="70.00" y="416.00" text-anchor="start" font-family="Helvetica,Arial,sans-serif" font-size="8" font-weight="normal" fill="#555">source outputs/session-21/beta-decomposition.csv and outputs/session-22/beta-window-sensitivity.csv</text><text x="740.00" y="416.00" text-anchor="end" font-family="Helvetica,Arial,sans-serif" font-size="8" font-weight="normal" fill="#555">sample period 2011-10-04 to 2021-07-30, 2472 sessions</text></svg>
